PathFileType	4	(X/Y/Z)	E:\Qualisys_Data\Carbon_Farble_Plate\Data\Amateur_Runner\S14\T2\S14T2V23_c3d.trc
DataRate	CameraRate	NumFrames	NumMarkers	Units	OrigDataRate	OrigDataStartFrame	OrigNumFrames
200.000000	200.000000	4	39	mm	200.000000	41	330
Frame#	Time	LSHO			RSHO			LICST			RICST			LASIS			LHEEL			RASIS			LTROC			RTROC			SACR			LTH1			LSK4			LTH2			LTH3			RHM5			LSK2			LTH4			RTH1			LTOE			RTH2			RTH3			RTH4			LLEP			RLEP			LSK1			LSK3			RSK1			LHM5			RSK2			LFT1			RSK3			RSK4			LLME			RLME			RTOE			RHEEL			RFT1			RFT2			LFT2			
		X1	Y1	Z1	X2	Y2	Z2	X3	Y3	Z3	X4	Y4	Z4	X5	Y5	Z5	X6	Y6	Z6	X7	Y7	Z7	X8	Y8	Z8	X9	Y9	Z9	X10	Y10	Z10	X11	Y11	Z11	X12	Y12	Z12	X13	Y13	Z13	X14	Y14	Z14	X15	Y15	Z15	X16	Y16	Z16	X17	Y17	Z17	X18	Y18	Z18	X19	Y19	Z19	X20	Y20	Z20	X21	Y21	Z21	X22	Y22	Z22	X23	Y23	Z23	X24	Y24	Z24	X25	Y25	Z25	X26	Y26	Z26	X27	Y27	Z27	X28	Y28	Z28	X29	Y29	Z29	X30	Y30	Z30	X31	Y31	Z31	X32	Y32	Z32	X33	Y33	Z33	X34	Y34	Z34	X35	Y35	Z35	X36	Y36	Z36	X37	Y37	Z37	X38	Y38	Z38	X39	Y39	Z39	

42	0.205	-2850.505859375	1371.041870117188	-485.8348083496094	-2845.13525390625	1357.512939453125	-175.3374481201172	-2944.212890625	924.845947265625	-478.9475708007812	-2923.123779296875	941.8316040039062	-196.0864562988281	-2903.128173828125	874.6416015625	-453.0553894042969	-3264.417724609375	490.2392272949219	-351.3672790527344	-2896.431396484375	903.812744140625	-217.5266723632812	-3035.028076171875	802.1482543945312	-483.4790344238281	-3031.744384765625	832.8807373046875	-159.4620819091797	-3070.260009765625	942.8709716796876	-342.3109436035156	-2890.94384765625	603.9415893554688	-504.0174255371094	-3068.549072265625	480.5877990722656	-448.6055603027344	-2960.476318359375	579.4703369140625	-476.1529541015625	-2851.155029296875	513.0385131835938	-490.3958129882812	-2983.3076171875	81.76933288574219	-193.8586578369141	-2974.412353515625	485.2413635253906	-477.2270202636719	-2922.484130859375	493.576171875	-461.333740234375	-2857.4296875	628.0394287109375	-160.7087860107422	-3256.5751953125	233.4339141845703	-397.1965942382812	-2933.843017578125	614.1305541992188	-157.3383331298828	-2835.763427734375	534.4987182617188	-193.3954620361328	-2916.84423828125	516.9686279296875	-181.7181549072266	-2890.49853515625	456.5163879394531	-481.8048095703125	-2882.049560546875	453.7226257324219	-192.5200347900391	-2966.53076171875	404.1788330078125	-468.6228637695312	-3065.920654296875	400.5283508300781	-445.0870361328125	-2901.8818359375	333.0298156738281	-196.1180267333984	-3278.375244140625	305.0015869140625	-453.9911193847656	-2978.2919921875	372.0779724121094	-186.4762115478516	-3291.13525390625	475.9230346679688	-330.5457458496094	-2958.194580078125	247.7248382568359	-218.140869140625	-3022.54833984375	289.5260009765625	-204.1766815185547	-3231.98095703125	438.2271118164062	-419.8218688964844	-3090.574951171875	136.1147766113281	-234.2008819580078	-2902.459228515625	80.93836212158203	-254.805908203125	-3155.7998046875	116.2328033447266	-292.4051208496094	-3144.91357421875	81.09860229492188	-315.0499877929688	-3162.361328125	92.44066619873048	-262.0252685546875	-3294.617431640625	487.9048767089844	-385.9888916015625
43	0.21	-2832.048828125	1371.830322265625	-486.7537231445312	-2823.156005859375	1357.873901367188	-176.2919464111328	-2924.046875	925.7483520507812	-478.8846130371094	-2902.75439453125	942.380126953125	-196.3444213867188	-2882.623046875	875.6204223632812	-452.5591735839844	-3234.288818359375	482.3514709472656	-351.3727722167969	-2876.319091796875	903.0479736328124	-216.8731994628906	-3014.414794921875	802.7802734375	-483.9873352050781	-3013.3515625	833.057373046875	-160.5118408203125	-3050.21337890625	944.6301879882812	-342.6828308105469	-2865.16552734375	608.1187133789062	-504.7516784667969	-3035.20849609375	476.693359375	-446.3506164550781	-2933.10205078125	581.48828125	-475.2290954589844	-2820.727783203125	518.3357543945312	-489.7727966308594	-2983.3076171875	81.76933288574219	-193.8586578369141	-2944.31103515625	487.8583984375	-478.2894592285156	-2892.685302734375	497.8779907226562	-460.8997497558594	-2843.818359375	625.93212890625	-160.8618621826172	-3213.8310546875	227.0977783203125	-398.2929382324219	-2921.29296875	614.7657470703125	-158.0185852050781	-2825.8798828125	531.5046997070312	-192.9653472900391	-2906.88818359375	516.8394165039062	-182.1870574951172	-2859.38720703125	461.3754577636719	-481.3671569824219	-2871.994873046875	451.6817016601562	-192.0867462158203	-2933.181640625	406.4212036132812	-467.9790344238281	-3032.59521484375	399.4700622558594	-444.9349060058594	-2897.066650390625	330.93896484375	-196.9855041503906	-3240.914794921875	297.5222778320312	-455.2003479003906	-2971.8701171875	371.6953430175781	-187.4350738525391	-3261.067626953125	467.7452697753906	-331.6802978515625	-2954.188232421875	247.2745056152344	-218.2482604980469	-3019.1953125	289.7402954101562	-203.9991760253906	-3200.585693359375	432.3031921386719	-421.0814514160156	-3089.583740234375	137.4395904541016	-234.1472930908203	-2901.964111328125	80.52042388916016	-255.2505950927734	-3154.396484375	118.513298034668	-291.6979675292969	-3144.690673828125	82.97135162353516	-315.6017456054688	-3162.139404296875	94.27986907958984	-262.6030883789062	-3264.633544921875	478.8854675292969	-386.1127014160156
44	0.215	-2813.3720703125	1373.319580078125	-487.7982177734375	-2800.3515625	1359.986572265625	-177.396728515625	-2904.21044921875	927.0397338867188	-478.6426696777344	-2881.144287109375	942.7110595703124	-197.2548217773438	-2863.147705078125	877.8248901367188	-453.1334838867188	-3204.951416015625	474.3842163085938	-352.0700378417969	-2857.40087890625	903.34716796875	-217.208984375	-2993.695556640625	804.7650146484375	-484.8902893066406	-2995.64306640625	834.1362915039062	-161.7460021972656	-3029.94482421875	946.4306030273438	-343.0409851074219	-2839.390380859375	612.8989868164062	-504.830322265625	-3005.000732421875	476.3570251464844	-446.484619140625	-2906.5810546875	584.2867431640625	-475.0010986328125	-2791.96630859375	524.8118286132812	-489.5334167480469	-2983.106201171875	81.8224105834961	-193.6519012451172	-2914.12158203125	490.6504516601562	-478.3673706054688	-2863.8681640625	503.3306579589844	-460.9701843261719	-2830.9296875	623.4558715820312	-161.1571350097656	-3173.21875	220.8166809082031	-398.8864440917969	-2908.623779296875	614.0632934570312	-158.2082672119141	-2814.052001953125	529.279296875	-193.5580902099609	-2896.265625	515.5846557617188	-182.0812072753906	-2828.913818359375	467.09423828125	-481.3191528320312	-2865.491455078125	449.724609375	-192.5060882568359	-2900.5849609375	409.1278076171875	-468.0112915039062	-2999.598876953125	399.0924987792969	-445.1346130371094	-2891.455078125	329.6695556640625	-196.5516967773438	-3202.350830078125	289.5129089355469	-455.6209716796875	-2966.2861328125	371.7616271972656	-187.5097198486328	-3231.137939453125	457.5599670410156	-331.94580078125	-2952.019775390625	247.0020904541016	-218.4984588623047	-3014.447021484375	290.8993225097656	-204.1079559326172	-3168.0732421875	425.5325317382812	-420.4351501464844	-3089.997802734375	139.6771087646484	-234.2963256835938	-2902.14013671875	80.55157470703125	-255.0198669433594	-3153.6640625	119.9881973266602	-291.8683776855469	-3143.604736328125	84.99504089355469	-315.5354614257812	-3161.37060546875	95.99600219726562	-262.5609436035156	-3235.2890625	469.7445983886719	-387.2237854003906
45	0.22	-2795.59716796875	1375.775634765625	-488.9360656738281	-2777.949951171875	1361.93994140625	-178.7544860839844	-2884.494384765625	929.0042724609376	-479.5447387695312	-2861.7197265625	944.1712646484376	-197.0540008544922	-2843.337646484375	879.0990600585938	-453.2124633789062	-3175.544677734375	465.5613098144531	-352.751953125	-2836.499755859375	903.8396606445312	-217.3964385986328	-2972.519775390625	807.2367553710938	-486.0648803710938	-2977.867919921875	835.2261352539062	-162.3053894042969	-3009.515625	948.2798461914062	-343.3240356445312	-2813.930908203125	618.098876953125	-504.6052551269531	-2975.6103515625	476.3501281738281	-446.9757690429688	-2879.939208984375	587.3836059570312	-474.3546447753906	-2763.52392578125	531.8797607421875	-489.3081665039062	-2983.031494140625	81.90200805664062	-193.8000793457031	-2884.547607421875	493.3059997558594	-477.9574890136719	-2834.256591796875	505.6127624511719	-461.5531311035156	-2817.77734375	621.1793212890625	-161.5489196777344	-3132.555908203125	213.5393981933594	-400.3271789550781	-2894.959228515625	614.8500366210938	-158.4388275146484	-2804.505859375	526.4367065429688	-193.7726135253906	-2886.693359375	515.8735961914062	-181.8393402099609	-2798.921142578125	472.8102722167969	-481.2337951660156	-2858.22265625	447.9682006835938	-192.1382904052734	-2868.27294921875	412.6288757324219	-468.0611877441406	-2966.877685546875	398.6532897949219	-445.0545349121094	-2886.6142578125	328.2530822753906	-196.931396484375	-3164.4697265625	281.2814025878906	-457.201904296875	-2960.702880859375	372.3781127929688	-188.0908966064453	-3201.83447265625	448.1693115234375	-333.12841796875	-2947.437255859375	247.0092468261719	-218.2617492675781	-3009.7822265625	291.9928283691406	-204.7425537109375	-3136.510009765625	418.4570617675781	-421.1143493652344	-3086.78955078125	141.8685760498047	-234.8236236572266	-2901.568603515625	80.34033203125	-255.3125305175781	-3153.881591796875	123.6642456054688	-292.9548645019531	-3143.403076171875	87.6219482421875	-315.8600158691406	-3160.32275390625	98.96491241455078	-263.2971496582031	-3206.025390625	460.1000061035156	-387.8991088867188
